<svg xmlns="http://www.w3.org/2000/svg" version="1.1" xmlns:xlink="http://www.w3.org/1999/xlink" width="87" height="90"><svg xmlns="http://www.w3.org/2000/svg" version="1.1" xmlns:xlink="http://www.w3.org/1999/xlink" width="87" height="90"><svg version="1.1" id="svg1" width="87" height="90" viewBox="0 0 87 90" xmlns="http://www.w3.org/2000/svg" xmlns:svg="http://www.w3.org/2000/svg">
  <defs id="defs1"></defs>
  <g id="g1" transform="translate(-2,-2)">
    <path style="fill:#d80f39;stroke:none" d="M 56,2 49,14 44,13 C 50.263535,26.181786 61.466461,38.245941 70.115738,50 74.122452,55.444981 77.315468,61.70858 84,64 L 82,57 89,55 87,46 71,43 V 42 L 86,38 88,22 C 83.77253,21.326172 81.273888,20.233948 80,16 L 67,26 71,12 C 64.004311,11.804512 61.2505,5.776474 56,2 M 37,14 2,69 C 8.1528149,68.005135 10.833188,61.906502 13.946759,57 21.429096,45.209007 32.04995,33.059818 37,20 43.51075,25.226616 38.926323,30.155323 35.398918,36 29.372448,45.985462 21.010788,56.044979 17,67 l 13,-1 c -3.444721,7.364136 -9.479355,17.821175 -9,26 L 61,57 c 3.628777,8.669067 7.753075,10.809143 17,11 L 51.265434,29 37,14 m 10,18 c 3.825985,9.669022 -3.911518,15.03075 -10,22 L 51,58 27,83 H 26 L 35,62 23,63 45,32 h 2 m 6,11 7,14 -17,-6 v -1 z" id="path1"></path>
  </g>
</svg></svg><style>@media (prefers-color-scheme: light) { :root { filter: none; } }
@media (prefers-color-scheme: dark) { :root { filter: none; } }
</style></svg>