<?xml version="1.0" encoding="UTF-8"?>
<svg id="Layer_2" data-name="Layer 2" xmlns="http://www.w3.org/2000/svg" viewBox="0 0 787.59 231.57">
  <defs>
    <style>
      .cls-1 {
        fill: #fff;
        opacity: 0;
      }

      .cls-2 {
        fill: #0057b8;
      }
    </style>
  </defs>
  <g id="Layer_2-2" data-name="Layer 2">
    <g>
      <rect class="cls-1" width="787.59" height="231.57"/>
      <g>
        <g>
          <path class="cls-2" d="M325.62,219.33c.25,0,.49.1.68.29l1.84,2.02c-1.03,1.26-2.29,2.25-3.78,2.91-1.49.68-3.3,1.01-5.39,1.01-1.88,0-3.55-.31-5.06-.95-1.49-.64-2.77-1.53-3.84-2.68s-1.86-2.5-2.43-4.09-.85-3.32-.85-5.18.31-3.63.91-5.22c.6-1.57,1.46-2.93,2.56-4.07s2.41-2.04,3.94-2.66c1.53-.64,3.22-.95,5.06-.95s3.47.31,4.89.91c1.42.6,2.64,1.4,3.65,2.37l-1.57,2.17c-.1.14-.21.25-.35.37-.16.1-.35.16-.6.16-.17,0-.35-.06-.54-.16s-.39-.21-.6-.37c-.21-.14-.49-.31-.78-.49s-.62-.33-1.01-.49-.83-.27-1.34-.37c-.5-.1-1.09-.16-1.75-.16-1.13,0-2.17.19-3.1.6-.93.41-1.75.99-2.43,1.75s-1.2,1.69-1.57,2.79-.56,2.35-.56,3.76.19,2.68.6,3.78c.41,1.11.95,2.04,1.63,2.79.68.76,1.49,1.34,2.43,1.75s1.94.6,3.01.6c.64,0,1.22-.04,1.75-.1.52-.08.99-.17,1.44-.33.43-.16.85-.35,1.24-.58s.78-.52,1.16-.87c.12-.1.23-.19.37-.25s.27-.1.41-.1v.02Z"/>
          <path class="cls-2" d="M356.34,225.29h-3.63c-.41,0-.74-.1-.99-.31-.25-.21-.45-.47-.58-.76l-1.88-5.16h-10.46l-1.88,5.16c-.1.27-.27.5-.54.74-.27.21-.6.33-.99.33h-3.67l9.93-25.24h4.79l9.92,25.24h-.02ZM340,215.74h8.05l-3.07-8.4c-.16-.37-.31-.81-.47-1.32s-.33-1.05-.49-1.65c-.16.6-.33,1.14-.49,1.67-.16.5-.31.97-.47,1.34l-3.07,8.36h-.02Z"/>
          <path class="cls-2" d="M364.66,200.07c.16,0,.27.06.39.1.12.06.21.14.33.23.1.1.21.23.35.39l13.23,16.9c-.04-.41-.06-.81-.08-1.2-.02-.39-.04-.76-.04-1.11v-15.35h4.13v25.24h-2.41c-.37,0-.68-.06-.93-.17-.25-.12-.49-.33-.72-.62l-13.19-16.82c.04.37.06.74.08,1.11,0,.37.02.7.02,1.01v15.5h-4.13v-25.24h2.46c.19,0,.37,0,.52.02l-.02.02Z"/>
          <path class="cls-2" d="M412.98,225.29h-3.63c-.41,0-.74-.1-.99-.31-.25-.21-.45-.47-.58-.76l-1.88-5.16h-10.46l-1.88,5.16c-.1.27-.27.5-.54.74-.27.21-.6.33-.99.33h-3.67l9.93-25.24h4.79l9.92,25.24h-.02ZM396.64,215.74h8.05l-3.07-8.4c-.16-.37-.31-.81-.47-1.32s-.33-1.05-.49-1.65c-.16.6-.33,1.14-.49,1.67-.16.5-.31.97-.47,1.34l-3.07,8.36h-.02Z"/>
          <path class="cls-2" d="M440.76,212.66c0,1.84-.31,3.55-.93,5.1-.62,1.55-1.49,2.89-2.6,4-1.13,1.13-2.46,1.98-4.04,2.6s-3.32.93-5.24.93h-9.62v-25.24h9.62c1.92,0,3.67.31,5.24.93s2.91,1.49,4.04,2.6,1.98,2.44,2.6,4c.62,1.55.93,3.24.93,5.1v-.02ZM435.93,212.66c0-1.38-.17-2.62-.54-3.73s-.89-2.04-1.59-2.79-1.53-1.34-2.52-1.77c-.99-.41-2.1-.6-3.32-.6h-4.91v17.77h4.91c1.24,0,2.35-.21,3.32-.62.99-.41,1.82-.99,2.52-1.75s1.22-1.69,1.59-2.79.54-2.35.54-3.73Z"/>
          <path class="cls-2" d="M468.24,225.29h-3.63c-.41,0-.74-.1-.99-.31-.25-.21-.45-.47-.58-.76l-1.88-5.16h-10.46l-1.88,5.16c-.1.27-.27.5-.54.74-.27.21-.6.33-.99.33h-3.67l9.93-25.24h4.79l9.92,25.24h-.02ZM451.88,215.74h8.05l-3.07-8.4c-.16-.37-.31-.81-.47-1.32s-.33-1.05-.49-1.65c-.16.6-.33,1.14-.49,1.67-.16.5-.31.97-.47,1.34l-3.07,8.36h-.02Z"/>
        </g>
        <path class="cls-2" d="M344.11,128.83v2.02c0,1.03-.83,1.88-1.88,1.88h-13.74c-1.03,0-1.88-.83-1.88-1.88v-2.02c0-1.03.83-1.88,1.88-1.88h13.74c1.03,0,1.88.83,1.88,1.88ZM311.05,112.01c1.34,4.13,2,8.95,2,14.42v6.38h-46.3c.1,5.06.6,9.43,1.53,13.06.93,3.65,2.27,6.64,4,8.98,1.75,2.35,3.88,4.09,6.42,5.2s5.45,1.67,8.75,1.67c2.41,0,4.62-.27,6.69-.81,2.06-.54,3.92-1.26,5.61-2.17,1.67-.91,3.16-1.94,4.44-3.09,1.28-1.14,2.35-2.37,3.16-3.63.64.27,1.24.83,1.8,1.69s.85,1.88.85,3.05c0,1.4-.5,2.91-1.49,4.52-.99,1.61-2.5,3.09-4.54,4.44-2.04,1.36-4.58,2.48-7.65,3.4-3.05.91-6.64,1.36-10.75,1.36-5.03,0-9.55-.85-13.54-2.54-4-1.69-7.39-4.17-10.15-7.43-2.76-3.26-4.87-7.26-6.35-11.97-1.47-4.73-2.21-10.11-2.21-16.12,0-12.98,2.68-22.76,8.01-29.32s12.94-9.84,22.8-9.84c4.48,0,8.5.7,12.09,2.1,3.57,1.4,6.6,3.49,9.1,6.29,2.48,2.77,4.4,6.25,5.74,10.38h-.04ZM299,125.36c0-3.67-.27-7-.81-10.05-.54-3.03-1.4-5.63-2.58-7.8s-2.74-3.84-4.66-5.03c-1.92-1.18-4.29-1.77-7.1-1.77-5.16,0-9.12,2.1-11.91,6.29-2.77,4.19-4.42,10.3-4.93,18.36h32ZM54.7,149.38l-28.78-79.48H0v5.84c6.52,0,7.3,2.25,7.39,7.08v73.39c-.1,4.83-.89,7.08-7.39,7.08v5.84h23.28v-5.84c-6.52,0-7.3-2.25-7.39-7.08h0v-75.66l32.25,88.58h7.53l31.84-88.85v75.93c-.1,4.83-.89,7.08-7.39,7.08v5.84h28.16v-5.84c-6.52,0-7.3-2.25-7.39-7.08v-73.39c.1-4.83.89-7.08,7.39-7.08v-5.84h-25.05l-28.5,79.48h-.02ZM247.05,160.39c-2.39-1.94-4.77-4.77-7.16-8.48l-18.53-27.5,9.78-11c3.63-4.11,6.99-7.32,10.09-9.57,3.1-2.27,6.25-3.4,9.47-3.4v-5.84h-27.63v5.84c6.25,0,7.82,1.84,4.04,6.48-3.8,4.19-7.28,8.01-7.9,8.71l-15.7,17.15V63.44h-20.49v5.84c6.52,0,7.3,2.25,7.39,7.08v79.85c-.1,4.83-.89,7.08-7.39,7.08v5.84h27.88v-5.84c-6.52,0-7.3-2.25-7.39-7.08h0v-12.22l9.1-10.15,13.25,20.3c1.94,3.09,3.76,5.45,5.3,7.3,4.79,5.74,7.12,9.12,14.9,9.12,8.58,0,9.64-7.26,9.64-7.26h-.41c-3.12,0-5.88-.97-8.25-2.91ZM178.58,163.24v.37c-.06,1.47-.81,6.89-9.31,6.89-9.06,0-11.33-11.33-11.62-13.12l-.04-.25c-1.46,1.94-4.42,13.31-22.8,13.31-3.09,0-5.94-.45-8.58-1.32s-4.93-2.23-6.85-4.07c-1.92-1.82-3.43-4.13-4.52-6.93-1.09-2.77-1.63-6.07-1.63-9.88,0-7.37,2.62-12.85,7.88-16.42,10.56-7.2,25.69-6.25,35.37-6.25v-8.34c0-2.48-.14-4.79-.41-6.89-.27-2.1-.85-3.92-1.77-5.43s-2.21-2.7-3.9-3.53c-1.71-.83-3.98-1.26-6.83-1.26-2.68,0-4.83.37-6.48,1.13-1.65.74-2.95,1.8-3.86,3.16-.93,1.36-1.55,2.97-1.86,4.81s-.47,3.86-.47,6.03c-3.84,0-6.77-.66-8.79-1.96-2.02-1.32-3.03-3.57-3.03-6.79,0-2.41.66-4.44,1.96-6.11,1.32-1.67,3.1-3.05,5.39-4.11s4.95-1.84,7.98-2.35c3.03-.5,6.27-.74,9.7-.74,4.25,0,7.96.43,11.14,1.26,3.16.83,5.82,2.21,7.94,4.11,2.13,1.9,3.73,4.39,4.79,7.43s1.59,6.79,1.59,11.23v36.03c0,1.94.1,3.3.33,4.58,1.42,7.99,8.69,5.39,8.69,5.39h-.02ZM156.44,131.67c-6.83,0-18.84-.76-25.19,4.79-1.63,1.42-2.79,3.18-3.49,5.26s-1.05,4.48-1.05,7.2c0,4.35.91,7.59,2.76,9.74,1.82,2.15,4.68,3.22,8.52,3.22,2.81,0,5.36-.45,7.65-1.36,2.29-.91,4.23-2.19,5.84-3.86s2.83-3.71,3.71-6.11c.85-2.39,1.3-5.06,1.3-8.01v-10.87h-.04ZM755.46,155.26v-34.79c0-17.19-7.3-27.2-24.27-27.2-9,0-16.84,3.55-20.86,11.89v-41.64h-20.49v5.84c6.52,0,7.3,2.25,7.39,7.08v79.77c-.1,4.83-.89,7.08-7.39,7.08v5.84h27.88v-5.84c-6.5,0-7.3-2.25-7.39-7.06v-29.96c0-12.44,5.2-24.14,16.84-24.14s15.27,7.35,15.27,19v37.35c0,4.99,3.01,12.44,13.35,12.44,7.53-.04,8.87-5.7,8.87-5.7,0,0-9.2,1.36-9.2-9.97v.02ZM781.92,164.23c.27,1.4.5,1.9.68,2.23h-2.23c-.27-.33-.45-1.13-.74-2.23-.17-.95-.74-1.4-1.9-1.4h-1.01v3.65h-2.13v-9.18c.83-.12,2.02-.27,3.53-.27,1.73,0,2.52.27,3.14.74.56.39.95,1.07.95,1.96,0,1.13-.83,1.84-1.9,2.19v.12c.89.27,1.34,1.01,1.63,2.23l-.02-.04ZM779.91,159.98c0-.83-.62-1.4-1.96-1.4-.56,0-.95.06-1.18.12v2.64h1.01c1.18,0,2.13-.39,2.13-1.34v-.02ZM452.39,164.71h1.84v5.84h-38.25v-5.84h3.2c7.16,0,9.31-3.98,8.05-9.04-.19-.81-.49-1.75-.85-2.77l-4-11.33c-6.17,2.19-13.08,3.43-20.61,3.43-6.97,0-13.35-1.11-19.15-3.1l-3.65,10.03c-.41,1.09-.72,2.15-.95,3.22-.95,4.42.27,6.73,1.94,7.92,1.51,1.09,3.84,1.63,6.97,1.63h3.2v5.84h-33.98v-5.84h2.64c1.36,0,2.52-.16,3.47-.45,2.27-.7,3.73-2.85,4.79-4.99.7-1.4,1.47-3.22,2.35-5.43l5.67-15.19c-19.37-10.21-30.25-31.32-30.25-53.13-.04-59.82,66.56-79.5,123.49-79.5,49.77,0,98.96,18.63,126.03,38.91.21.16.27.45.12.68-.14.23-.43.29-.66.17-19.64-10.48-62.62-30.35-122.17-30.35-52.04,0-117.34,16.44-117.34,71.48,0,18.69,9.1,35.08,23.56,44.14l22.33-59.82h10.87l21.71,59.42c8.67-5.55,15.15-13.68,19.05-23.34.08-.21.31-.33.52-.27s.35.27.33.49c-1.65,10.94-8.15,20.94-18.18,27.84l8.01,21.93c.54,1.46,1.11,2.66,1.67,3.61,1.86,3.12,4.58,3.8,8.19,3.8l.02.02ZM420.5,136.29l-17.66-50.04-17.66,48.55c5.84,2.41,12.32,3.74,19.25,3.74,5.78,0,11.16-.8,16.07-2.25h0ZM787.59,161.7c0,5.14-4.15,9.24-9.41,9.24s-9.47-4.09-9.47-9.24,4.19-9.18,9.47-9.18h.06c5.2,0,9.35,4.04,9.35,9.18ZM785.88,161.7c0-4.19-3.36-7.47-7.7-7.47s-7.76,3.28-7.76,7.47,3.42,7.53,7.76,7.53,7.7-3.32,7.7-7.53ZM621.88,51.02c-.43-.41-.6-1.01-.49-1.59l1.96-9.37c.14-.62-.52-1.09-1.07-.8l-8.46,4.46c-.52.27-1.14.27-1.67-.02l-8.3-4.75c-.54-.31-1.2.16-1.09.76l1.63,9.43c.1.58-.1,1.18-.54,1.57l-7.08,6.42c-.47.43-.23,1.18.39,1.28l9.47,1.36c.58.08,1.09.47,1.32,1.01l3.92,8.73c.25.56,1.07.58,1.34.02l4.23-8.6c.25-.52.78-.89,1.36-.95l9.51-1.03c.62-.06.89-.83.43-1.26l-6.87-6.67h.02ZM678.93,135.06c-1.71-1.77-3.86-3.4-6.48-4.89s-5.76-3.01-9.43-4.54c-3.09-1.26-5.72-2.41-7.92-3.43-2.19-1.01-3.98-2.08-5.36-3.16-1.38-1.09-2.39-2.27-3.03-3.57-.64-1.28-.95-2.81-.95-4.58,0-1.63.25-3.12.74-4.48.5-1.36,1.28-2.54,2.35-3.53s2.43-1.77,4.11-2.31c1.67-.54,3.69-.81,6.03-.81,4.11,0,7.14,1.28,9.06,3.86,1.92,2.58,2.89,6.21,2.89,10.87,3.22,0,5.69-.76,7.43-2.27,1.75-1.51,2.62-3.53,2.62-6.07,0-1.73-.43-3.36-1.28-4.93s-2.15-2.91-3.86-4.07c-1.73-1.14-3.84-2.08-6.38-2.76s-5.45-1.03-8.75-1.03c-3.94,0-7.51.43-10.73,1.28s-5.98,2.12-8.29,3.76-4.07,3.71-5.34,6.15c-1.24,2.44-1.86,5.26-1.86,8.42s.43,5.65,1.28,7.84,2.15,4.15,3.86,5.88c1.73,1.73,3.9,3.32,6.56,4.79,2.66,1.47,5.76,2.99,9.33,4.58,3.36,1.46,6.13,2.74,8.34,3.86,2.21,1.13,3.98,2.23,5.26,3.32s2.19,2.25,2.72,3.49.78,2.74.78,4.44c0,1.86-.33,3.57-1.01,5.12-.68,1.55-1.67,2.89-2.95,4s-2.89,1.96-4.79,2.58c-1.9.6-4.09.91-6.58.91-2.81,0-5.18-.47-7.1-1.4s-3.47-2.19-4.66-3.8-2.02-3.47-2.5-5.61c-.5-2.13-.76-4.4-.76-6.85-.81,0-1.73.16-2.76.45-1.01.29-1.96.8-2.85,1.53-.87.72-1.63,1.71-2.23,2.95s-.91,2.79-.91,4.66c0,2.44.54,4.58,1.63,6.42,1.09,1.82,2.62,3.38,4.62,4.62s4.4,2.17,7.24,2.77c2.83.6,5.98.91,9.47.91,4.11,0,7.86-.45,11.23-1.36,3.38-.91,6.25-2.27,8.65-4.11,2.41-1.82,4.25-4.11,5.57-6.83,1.32-2.72,1.96-5.88,1.96-9.51,0-2.89-.41-5.45-1.22-7.66s-2.08-4.21-3.76-5.98v.08ZM471.48,126.95h-13.74c-1.03,0-1.88.83-1.88,1.88v2.02c0,1.03.83,1.88,1.88,1.88h13.74c1.03,0,1.88-.83,1.88-1.88v-2.02c0-1.03-.83-1.88-1.88-1.88ZM602.3,71.24h-29.49v5.76h3.14c3.03,0,5.3.52,6.79,1.57s2.25,2.76,2.25,5.12c0,1.59-1.09,5.63-1.47,7.16l-17.87,61.1-23.03-79.79h-9.92l-22.04,81.92-18.4-65.45c-.27-1.03-.5-1.94-.74-2.76-.68-2.46-.43-5.69,1.71-7.33,1.36-1.05,3.42-1.57,6.19-1.57h3.14v-5.76h-37.76v5.76c2.77,0,5.76-.14,8.03,1.47,1.84,1.3,2.79,3.59,3.47,5.76l25.11,84.91h12.65l20.96-76.8,22.37,76.8h12.32l23.5-81.5c.66-2.27,1.34-4.09,2.02-5.49,1.88-3.9,3.94-4.79,7.06-5.16v-5.76.02ZM620.52,156.21v-61.61h-18.74l-1.71,5.84c6.52,0,7.3,2.25,7.39,7.08v-.1,48.78c-.1,4.83-.89,7.08-7.39,7.08v5.84h27.83v-5.84c-6.52,0-7.3-2.25-7.39-7.08h.02Z"/>
      </g>
    </g>
  </g>
</svg>
